<?xml version="1.0" encoding="UTF-8"?>
<svg version="1.1" xmlns="http://www.w3.org/2000/svg" width="512" height="512">
<path d="M0 0 C26.04967519 20.14936355 43.66865243 52.72885342 52.34765625 84.0859375 C53.29253906 83.78945312 54.23742187 83.49296875 55.2109375 83.1875 C70.23759907 78.93275987 86.27627266 78.77756769 101.78515625 78.7109375 C102.53171478 78.70326355 103.27827332 78.6955896 104.04745483 78.68768311 C127.66408431 78.49361739 152.05000568 83.24123284 170.34765625 99.0859375 C171.03859375 99.68148437 171.72953125 100.27703125 172.44140625 100.890625 C178.72030885 106.71068472 184.67300878 114.49480211 186.53515625 123.0234375 C186.34765625 126.0859375 186.34765625 126.0859375 184.78515625 128.9609375 C181.8286343 131.53841818 180.25797737 132.0859375 176.34765625 132.0859375 C171.86711851 130.02559573 170.21794257 127.65126829 167.97265625 123.3359375 C160.46444575 110.01646813 148.38854697 103.15493974 133.96875 98.875 C122.92667764 96.46885262 112.1681206 95.72298305 100.91015625 95.7734375 C100.171745 95.77359863 99.43333374 95.77375977 98.67254639 95.77392578 C86.70704232 95.79201471 75.07203526 96.64515209 63.28173828 98.81054688 C61.34765625 99.0859375 61.34765625 99.0859375 57.34765625 99.0859375 C57.63898438 99.97667969 57.9303125 100.86742188 58.23046875 101.78515625 C61.12261419 110.94042461 63.37009973 120.19254403 65.34765625 129.5859375 C65.60836914 130.80434326 65.86908203 132.02274902 66.13769531 133.27807617 C67.54268837 140.13467091 68.60248396 146.8762871 69.27734375 153.8359375 C70.30016016 170.77962907 70.30016016 170.77962907 78.90234375 184.58691406 C81.64632523 186.5959005 84.44667736 188.36798402 87.42822266 190.00244141 C90.09519572 191.50791412 92.37578614 193.37710315 94.72265625 195.3359375 C95.48835938 195.944375 96.2540625 196.5528125 97.04296875 197.1796875 C99.63481904 199.3234552 102.11495718 201.56688316 104.59765625 203.8359375 C105.42910156 204.57714844 106.26054687 205.31835938 107.1171875 206.08203125 C108.41623923 207.24913026 109.69619373 208.43966412 110.921875 209.68359375 C112.41011615 211.15262208 112.41011615 211.15262208 115.34765625 212.0859375 C118.10289664 211.31245639 120.64836291 210.23560589 123.28515625 209.125 C131.84257234 206.22159097 140.76830604 208.22973052 149.34765625 210.0859375 C159.18503372 194.2156798 167.72809542 179.30161332 172.22021484 161.05297852 C172.4414502 160.19244873 172.66268555 159.33191895 172.890625 158.4453125 C173.0764917 157.67670898 173.2623584 156.90810547 173.45385742 156.11621094 C174.60824461 153.4940083 175.89802747 152.53069848 178.34765625 151.0859375 C182.19339108 150.60522065 184.41891516 150.53821839 187.78515625 152.5234375 C190.84306547 157.53840862 189.74693415 162.17150502 188.60546875 167.64453125 C184.3108295 184.78714099 175.9908816 203.1141643 164.859375 216.93359375 C163.35763545 218.80599899 163.35763545 218.80599899 162.34765625 222.0859375 C163.28263115 224.87781605 164.50774392 227.22750918 166.015625 229.75390625 C169.89250446 236.5412876 169.40578436 245.94870673 167.5234375 253.30859375 C166.0507197 257.37636076 164.31678527 261.23637897 162.34765625 265.0859375 C162.96511719 265.97152344 163.58257812 266.85710937 164.21875 267.76953125 C180.82008612 291.90882488 195.73155959 321.22458905 190.22265625 351.3984375 C186.5422 369.17182106 177.19306915 383.05834763 162.16015625 393.24609375 C153.74448895 398.50512672 144.97071892 401.78122627 135.34765625 404.0859375 C134.6726709 404.24964844 133.99768555 404.41335938 133.30224609 404.58203125 C109.40992358 410.04313354 83.30974757 407.70918857 59.34765625 404.0859375 C57.95332107 403.88535107 56.55881598 403.68593814 55.1640625 403.48828125 C54.23464844 403.35550781 53.30523437 403.22273438 52.34765625 403.0859375 C52.15768066 403.6121167 51.96770508 404.1382959 51.77197266 404.68041992 C42.97193576 428.86354801 32.79885787 452.7842822 15.34765625 472.0859375 C14.90728027 472.57545898 14.4669043 473.06498047 14.01318359 473.56933594 C2.35345995 486.36055972 -13.14815149 497.9332981 -31.03320312 499.26293945 C-42.49416365 499.54810015 -52.94851478 499.75431943 -63.65234375 495.0859375 C-64.66296875 494.66183594 -65.67359375 494.23773438 -66.71484375 493.80078125 C-74.32278957 490.31704075 -80.46393022 485.67517029 -86.65234375 480.0859375 C-87.41160156 479.40917969 -88.17085937 478.73242188 -88.953125 478.03515625 C-109.60343822 458.55857308 -124.1713716 429.1145548 -131.65234375 402.0859375 C-132.76416016 402.37597656 -132.76416016 402.37597656 -133.8984375 402.671875 C-164.31187063 410.19147536 -164.31187063 410.19147536 -173.71484375 405.5859375 C-176.05525413 402.56605314 -176.24373736 400.80658473 -176.31640625 397.0859375 C-175.27900262 393.96152185 -173.34380364 392.90555444 -170.65234375 391.0859375 C-167.39428711 390.26464844 -167.39428711 390.26464844 -163.7421875 389.8203125 C-163.09286758 389.73718811 -162.44354767 389.65406372 -161.77455139 389.56842041 C-159.71455198 389.30877054 -157.65262519 389.07234562 -155.58984375 388.8359375 C-154.20098926 388.66291795 -152.81231412 388.48845229 -151.42382812 388.3125 C-141.5418566 387.0859375 -141.5418566 387.0859375 -136.65234375 387.0859375 C-137.01585937 385.92964844 -137.379375 384.77335937 -137.75390625 383.58203125 C-141.03437155 372.8197257 -143.63496595 362.00567121 -145.77734375 350.9609375 C-145.90709595 350.30618439 -146.03684814 349.65143127 -146.17053223 348.97683716 C-147.57507193 341.85585577 -148.74991685 334.79845934 -149.35546875 327.5546875 C-150.27522306 313.29758355 -150.27522306 313.29758355 -158.13671875 302.01123047 C-160.90471474 299.92576269 -163.742116 298.04307922 -166.71679688 296.26611328 C-169.33671827 294.66864859 -171.66455131 292.78862743 -174.02734375 290.8359375 C-174.79304688 290.2275 -175.55875 289.6190625 -176.34765625 288.9921875 C-178.93950654 286.8484198 -181.41964468 284.60499184 -183.90234375 282.3359375 C-184.73378906 281.59472656 -185.56523437 280.85351562 -186.421875 280.08984375 C-187.72092673 278.92274474 -189.00088123 277.73221088 -190.2265625 276.48828125 C-191.71480365 275.01925292 -191.71480365 275.01925292 -194.65234375 274.0859375 C-197.40758414 274.85941861 -199.95305041 275.93626911 -202.58984375 277.046875 C-211.14725984 279.95028403 -220.07299354 277.94214448 -228.65234375 276.0859375 C-243.05412148 299.31976428 -256.95512505 323.43566631 -252.00390625 351.80078125 C-248.60904624 364.00196617 -241.4101322 373.46260903 -230.55859375 379.9296875 C-222.14905143 384.39962441 -213.89946236 386.89117707 -204.65234375 389.0859375 C-197.91638952 390.78888601 -197.91638952 390.78888601 -195.65234375 393.3359375 C-194.40752274 396.75919528 -194.59718331 398.61898176 -195.65234375 402.0859375 C-197.23301269 404.07895486 -198.38321077 404.95137101 -200.65234375 406.0859375 C-218.18089786 406.5642996 -237.30460943 398.33401425 -250.15234375 386.7109375 C-261.82992884 375.59024806 -269.2655849 361.24288181 -269.98828125 344.9921875 C-270.43915745 318.04118651 -261.31763918 291.95614664 -244.71484375 270.5859375 C-242.68516707 267.93077488 -242.68516707 267.93077488 -241.65234375 265.0859375 C-242.47515232 260.82927452 -244.39321205 257.72931171 -246.65234375 254.0859375 C-250.00789874 244.5850347 -247.7510975 233.91172111 -243.65234375 225.0859375 C-242.99476259 223.74809997 -242.33121426 222.41309877 -241.65234375 221.0859375 C-242.57853516 219.75755859 -242.57853516 219.75755859 -243.5234375 218.40234375 C-260.41674259 193.84370568 -274.26547063 165.67160064 -269.65234375 135.0859375 C-266.220569 118.24547585 -257.81715522 104.26056612 -243.69726562 94.35058594 C-224.63046638 81.80777043 -202.47052447 78.86613956 -180.08984375 78.8359375 C-179.36734436 78.83393341 -178.64484497 78.83192932 -177.90045166 78.8298645 C-164.63850808 78.82090101 -151.75576423 80.00978942 -138.65234375 82.0859375 C-136.32002549 82.4269106 -133.98634314 82.75661978 -131.65234375 83.0859375 C-130.17228373 79.14877272 -128.69344878 75.21114891 -127.21484375 71.2734375 C-126.79396484 70.15388672 -126.37308594 69.03433594 -125.93945312 67.88085938 C-125.53662109 66.80771484 -125.13378906 65.73457031 -124.71875 64.62890625 C-124.34693604 63.63914795 -123.97512207 62.64938965 -123.59204102 61.62963867 C-122.9136195 59.79319445 -122.2714385 57.94322176 -121.65234375 56.0859375 C-122.73578893 54.55667258 -122.73578893 54.55667258 -124.33984375 53.0859375 C-130.92184202 45.73680656 -132.35167492 37.15889367 -132.03515625 27.515625 C-130.97480885 18.01577788 -126.99060663 9.51770291 -119.58203125 3.3671875 C-110.1614033 -3.32900798 -101.15660721 -5.02571043 -89.65234375 -3.9140625 C-87.80370408 -3.29109626 -85.96836361 -2.62654227 -84.15234375 -1.9140625 C-80.36311843 -0.71016514 -79.06071967 -0.73573029 -75.3515625 -2.35546875 C-73.5509911 -3.40056981 -71.79632858 -4.50409539 -70.03710938 -5.6171875 C-48.12840965 -19.46669995 -20.08977658 -14.49777691 0 0 Z M-66.65234375 11.0859375 C-66.44738281 11.76140625 -66.24242187 12.436875 -66.03125 13.1328125 C-65.76183594 14.02484375 -65.49242187 14.916875 -65.21484375 15.8359375 C-64.94800781 16.71765625 -64.68117187 17.599375 -64.40625 18.5078125 C-60.91440176 30.44884792 -62.51677545 40.52782991 -68.46484375 51.3984375 C-74.35189348 58.6310986 -81.49673088 63.09747434 -90.65234375 65.0859375 C-93.41204783 65.15520718 -96.14430417 65.1801111 -98.90234375 65.1484375 C-99.64742187 65.14392578 -100.3925 65.13941406 -101.16015625 65.13476562 C-102.99092015 65.12302996 -104.82164248 65.105096 -106.65234375 65.0859375 C-110.49218135 72.19907928 -113.27745141 79.3642205 -115.65234375 87.0859375 C-109.7612817 89.08644399 -103.84425271 90.94812938 -97.88574219 92.73681641 C-79.79038525 98.18837743 -61.52317154 103.8402584 -44.51953125 112.1875 C-36.76882811 114.61619445 -29.23165114 110.07018177 -22.15234375 107.1484375 C-11.60190556 102.8968521 -0.98484566 99.05713598 9.84765625 95.5859375 C10.48888428 95.37897247 11.1301123 95.17200745 11.79077148 94.95877075 C19.90668615 92.3476054 28.04876716 90.03996956 36.34765625 88.0859375 C29.63416717 62.4907604 15.85102979 37.99822537 -2.65234375 19.0859375 C-3.23886719 18.46332031 -3.82539063 17.84070312 -4.4296875 17.19921875 C-14.52525594 7.36874183 -27.79080894 2.81458592 -41.57910156 2.76464844 C-50.94048873 2.90369754 -59.20630367 5.294573 -66.65234375 11.0859375 Z M-113.234375 21.1484375 C-116.47399377 25.57502402 -116.34474849 30.83455323 -115.65234375 36.0859375 C-113.15897294 42.1590025 -109.08763914 46.22902107 -103.33984375 49.3359375 C-96.99751325 51.1058902 -92.14698963 50.50818167 -86.4765625 47.35546875 C-82.13607452 44.33478654 -79.00134776 40.23668008 -77.65234375 35.0859375 C-77.03015484 28.76035026 -77.94371429 24.3146738 -81.65234375 19.0859375 C-85.26903828 15.296628 -88.51699273 12.36655411 -93.921875 11.8828125 C-103.06719866 11.71423511 -107.33717704 14.27488226 -113.234375 21.1484375 Z M-243.52734375 115.9609375 C-251.64322762 125.97958841 -255.18493705 138.17813088 -254.58984375 151.0234375 C-252.61251309 169.54031529 -245.10838882 185.97536716 -235.40234375 201.6484375 C-234.89509766 202.47633789 -234.38785156 203.30423828 -233.86523438 204.15722656 C-233.37732422 204.91874023 -232.88941406 205.68025391 -232.38671875 206.46484375 C-231.74041504 207.47913452 -231.74041504 207.47913452 -231.08105469 208.51391602 C-229.32164893 210.44980352 -228.23203023 210.81025776 -225.65234375 211.0859375 C-224.68296875 210.7765625 -223.71359375 210.4671875 -222.71484375 210.1484375 C-212.71365229 207.04977775 -203.0835279 209.27947759 -193.65234375 213.0859375 C-193.27464844 212.68503906 -192.89695313 212.28414063 -192.5078125 211.87109375 C-187.76946506 206.97739066 -182.65340652 202.7014678 -177.34179688 198.44580078 C-175.44276136 196.91724185 -173.55485454 195.37556127 -171.66796875 193.83203125 C-170.26693603 192.68748904 -168.8658944 191.54295775 -167.46484375 190.3984375 C-166.81201416 189.86395996 -166.15918457 189.32948242 -165.48657227 188.77880859 C-164.84647217 188.25754395 -164.20637207 187.7362793 -163.546875 187.19921875 C-162.91273682 186.67183105 -162.27859863 186.14444336 -161.62524414 185.60107422 C-159.65234375 184.0859375 -159.65234375 184.0859375 -157.47436523 182.84033203 C-153.95994122 180.73255553 -152.04108578 179.20170512 -150.66674805 175.25708008 C-149.96730253 171.62235238 -149.49945161 168.01462797 -149.08984375 164.3359375 C-148.72256056 161.55230869 -148.32894081 158.77250809 -147.9375 155.9921875 C-147.83937012 155.27166199 -147.74124023 154.55113647 -147.64013672 153.80877686 C-146.47374095 145.410033 -144.76532755 137.13181275 -143.02734375 128.8359375 C-142.73482929 127.41441176 -142.44242748 125.99286283 -142.15014648 124.57128906 C-140.72573391 117.71968426 -139.16338875 110.94809065 -137.18994141 104.23144531 C-136.53081624 101.96957045 -136.53081624 101.96957045 -136.65234375 99.0859375 C-139.27652472 98.60189484 -141.90155972 98.12364252 -144.52734375 97.6484375 C-145.254375 97.51373047 -145.98140625 97.37902344 -146.73046875 97.24023438 C-178.28947333 91.56515022 -219.91132778 90.87840233 -243.52734375 115.9609375 Z M-120.65234375 103.0859375 C-123.32576389 109.67032539 -125.02748814 116.28562421 -126.58984375 123.2109375 C-126.84781738 124.34370117 -127.10579102 125.47646484 -127.37158203 126.64355469 C-129.06308911 134.18218177 -130.62378442 141.73845207 -132.02734375 149.3359375 C-132.19484131 150.23328613 -132.36233887 151.13063477 -132.53491211 152.05517578 C-133.31872699 156.45753937 -133.84321898 160.59302814 -133.65234375 165.0859375 C-128.3527177 162.29592273 -123.29039534 159.2382494 -118.27734375 155.9609375 C-99.5340934 143.77859063 -79.6681124 133.01544071 -59.65234375 123.0859375 C-62.0226866 120.71559465 -63.87436813 120.12087739 -67.0234375 118.984375 C-68.14298828 118.58009277 -69.26253906 118.17581055 -70.41601562 117.75927734 C-72.23456055 117.11659912 -72.23456055 117.11659912 -74.08984375 116.4609375 C-75.32927734 116.02088379 -76.56871094 115.58083008 -77.84570312 115.12744141 C-86.71360632 112.00737073 -95.64294105 109.14547979 -104.65234375 106.4609375 C-105.79630615 106.11853027 -106.94026855 105.77612305 -108.11889648 105.42333984 C-114.28032298 103.61611685 -114.28032298 103.61611685 -120.65234375 103.0859375 Z M33.03515625 104.38671875 C31.97224365 104.6997998 30.90933105 105.01288086 29.81420898 105.33544922 C28.67024658 105.68623535 27.52628418 106.03702148 26.34765625 106.3984375 C25.16824463 106.75437988 23.98883301 107.11032227 22.77368164 107.47705078 C13.70265349 110.2601324 4.7278136 113.29113052 -4.21484375 116.4609375 C-5.42720703 116.88930908 -6.63957031 117.31768066 -7.88867188 117.7590332 C-9.00822266 118.163396 -10.12777344 118.56775879 -11.28125 118.984375 C-12.2719751 119.34192871 -13.2627002 119.69948242 -14.28344727 120.06787109 C-16.78157867 120.96820213 -16.78157867 120.96820213 -18.65234375 123.0859375 C-18.09063477 123.39184814 -17.52892578 123.69775879 -16.95019531 124.01293945 C-12.22665893 126.58597332 -7.50492196 129.16224286 -2.78515625 131.7421875 C0.94138642 133.77801624 4.67414962 135.80082732 8.41796875 137.8046875 C19.95182147 144.01190402 31.05832089 150.78405045 42.1171875 157.80078125 C46.13607053 160.34633787 50.19102746 162.77283445 54.34765625 165.0859375 C53.82599325 156.05595102 52.41824738 147.37621825 50.59765625 138.5234375 C50.46615173 137.87372986 50.33464722 137.22402222 50.19915771 136.55462646 C47.98429292 125.61858469 45.40222694 114.81748233 42.34765625 104.0859375 C38.80876704 102.85260975 36.58908116 103.33141688 33.03515625 104.38671875 Z M-51.46484375 136.1484375 C-52.55434326 136.71046875 -53.64384277 137.2725 -54.76635742 137.8515625 C-57.00338488 139.01069469 -59.23241057 140.18540143 -61.453125 141.37548828 C-64.36571302 142.93269155 -67.29664978 144.43991928 -70.24609375 145.92578125 C-86.96166988 154.40034788 -103.08256128 164.02983804 -118.6484375 174.46484375 C-121.29038364 176.2323656 -123.9632276 177.83539574 -126.75 179.36328125 C-133.23024573 183.00870735 -133.23024573 183.00870735 -137.42089844 188.95556641 C-138.53535958 193.49424712 -138.63149395 198.04104079 -138.63427734 202.69580078 C-138.651283 204.94560249 -138.77504853 207.15240999 -138.953125 209.39453125 C-140.72831871 232.78257898 -140.2029286 256.62785803 -138.77734375 280.0234375 C-138.73813812 280.69942993 -138.6989325 281.37542236 -138.65853882 282.07189941 C-138.28855642 291.32227097 -138.28855642 291.32227097 -135.65234375 300.0859375 C-133.6556382 301.83907461 -131.88307383 303.18530827 -129.66796875 304.58984375 C-128.76321304 305.19014908 -128.76321304 305.19014908 -127.84017944 305.80258179 C-125.87151364 307.10162909 -123.88802989 308.37558847 -121.90234375 309.6484375 C-120.52733477 310.54489204 -119.15282671 311.44211536 -117.77880859 312.34008789 C-99.86701541 323.99053913 -81.42366369 334.64881271 -62.50048828 344.57128906 C-59.75365817 346.03205831 -57.04539496 347.54945266 -54.3359375 349.078125 C-52.69275362 349.95824933 -51.04829427 350.83599807 -49.40234375 351.7109375 C-48.68925049 352.13213867 -47.97615723 352.55333984 -47.24145508 352.98730469 C-43.76215199 354.76469139 -41.68771969 355.349922 -37.8371582 354.36816406 C-34.68234406 353.08780201 -31.6817241 351.63898342 -28.65234375 350.0859375 C-27.71664551 349.64330566 -26.78094727 349.20067383 -25.81689453 348.74462891 C-22.97034093 347.39715679 -20.1533681 346.00100686 -17.33984375 344.5859375 C-16.31004395 344.06821777 -15.28024414 343.55049805 -14.21923828 343.01708984 C23.87063548 324.47198715 23.87063548 324.47198715 57.34765625 299.0859375 C57.73965445 296.04182647 58.06744666 293.01603815 58.34765625 289.9609375 C58.43450684 289.01879395 58.52135742 288.07665039 58.61083984 287.10595703 C60.90643891 261.01882094 60.84288809 234.90634938 59.47265625 208.7734375 C59.43345062 207.98377594 59.394245 207.19411438 59.35385132 206.38052368 C59.23900145 204.118917 59.11188182 201.85835459 58.98046875 199.59765625 C58.90715332 198.29272217 58.83383789 196.98778809 58.75830078 195.64331055 C58.1505423 190.37835883 57.71571933 187.27013096 53.60473633 183.71166992 C52.45335197 182.93808372 51.28993252 182.18221032 50.1171875 181.44140625 C49.48971115 181.0273201 48.8622348 180.61323395 48.21574402 180.18659973 C46.20684986 178.86673794 44.18394374 177.57031554 42.16015625 176.2734375 C40.84997366 175.41484079 39.54071952 174.55482557 38.23242188 173.69335938 C26.69941927 166.1382475 14.92298755 158.93120408 2.84765625 152.2734375 C1.75904297 151.67184814 1.75904297 151.67184814 0.6484375 151.05810547 C-5.75040128 147.54383535 -12.19273977 144.11201687 -18.65234375 140.7109375 C-19.59529297 140.21102295 -20.53824219 139.7111084 -21.50976562 139.19604492 C-23.3319238 138.24397692 -25.16432818 137.3112279 -27.00708008 136.3996582 C-28.74477645 135.53666382 -30.46021485 134.62701865 -32.1472168 133.66870117 C-39.78510339 129.77644085 -44.29469175 132.21545697 -51.46484375 136.1484375 Z M-160.52734375 205.0234375 C-165.71039956 209.46071436 -170.96062464 213.78241231 -176.3125 218.015625 C-178.8368106 220.24915524 -180.87062495 222.21319089 -182.65234375 225.0859375 C-182.25706692 227.58577845 -182.25706692 227.58577845 -180.90234375 230.0234375 C-176.3549885 241.00795797 -178.25547889 251.36857941 -182.65234375 262.0859375 C-173.40290785 270.65553092 -163.96591166 278.80801335 -153.65234375 286.0859375 C-153.68263672 285.40942139 -153.71292969 284.73290527 -153.74414062 284.03588867 C-154.96868065 255.99627705 -154.67797284 228.11889013 -153.65234375 200.0859375 C-156.02393231 200.0859375 -158.72062555 203.46794405 -160.52734375 205.0234375 Z M74.34765625 200.0859375 C74.37794922 200.79274658 74.40824219 201.49955566 74.43945312 202.2277832 C75.61142119 230.23556624 75.41104604 258.08428254 74.34765625 286.0859375 C84.45567115 278.56895113 94.06408973 270.60426426 103.34765625 262.0859375 C103.05890625 261.38210938 102.77015625 260.67828125 102.47265625 259.953125 C97.72051512 247.31374963 98.24579259 236.52173017 103.34765625 224.0859375 C94.09822035 215.51634408 84.66122416 207.36386165 74.34765625 200.0859375 Z M-227.52734375 231.0234375 C-231.14392507 236.23556941 -232.59604898 240.6923346 -231.65234375 247.0859375 C-229.43021904 253.92907155 -225.55314044 257.87197181 -219.33984375 261.3984375 C-214.56157449 262.62078545 -210.06643889 263.11447803 -205.43359375 261.140625 C-199.99651715 257.91489672 -196.17679628 253.93371994 -193.65234375 248.0859375 C-192.62759483 241.74328102 -193.49249969 236.99987155 -197.22265625 231.7734375 C-200.51938247 227.88221967 -204.5975542 224.57975686 -209.73046875 223.75 C-216.981807 223.61958025 -222.63777593 225.49050549 -227.52734375 231.0234375 Z M117.97265625 231.6484375 C114.30701092 237.1469055 113.37720828 241.49085233 114.34765625 248.0859375 C117.07190674 254.6826763 121.8225735 259.23950584 128.34765625 262.0859375 C134.7536037 263.1214854 140.07818328 261.82519233 145.34765625 258.0859375 C149.97725478 253.79709623 152.10951598 249.50703024 152.72265625 243.2734375 C152.56102271 237.91932662 150.55095174 233.47032577 146.921875 229.54296875 C141.89596062 225.11444988 137.28265791 223.54932913 130.69140625 223.703125 C125.3575694 224.57431835 121.55715888 227.78094782 117.97265625 231.6484375 Z M114.34765625 273.0859375 C113.96996094 273.48683594 113.59226562 273.88773437 113.203125 274.30078125 C108.46477756 279.19448434 103.34871902 283.4704072 98.03710938 287.72607422 C96.13807386 289.25463315 94.25016704 290.79631373 92.36328125 292.33984375 C90.96224853 293.48438596 89.5612069 294.62891725 88.16015625 295.7734375 C87.50732666 296.30791504 86.85449707 296.84239258 86.18188477 297.39306641 C85.54178467 297.91433105 84.90168457 298.4355957 84.2421875 298.97265625 C83.60861328 299.49641846 82.97503906 300.02018066 82.32226562 300.55981445 C80.34765625 302.0859375 80.34765625 302.0859375 78.15429688 303.43041992 C75.023087 305.40934739 72.820259 306.88111183 71.43969727 310.40063477 C70.85678402 313.27547499 70.51013625 316.10421506 70.22265625 319.0234375 C69.93250143 321.26633257 69.63665598 323.50849681 69.3359375 325.75 C69.18334473 326.93754883 69.03075195 328.12509766 68.87353516 329.34863281 C67.9505033 335.90841539 66.68350389 342.39964767 65.41015625 348.8984375 C65.21951599 349.88268204 65.21951599 349.88268204 65.02502441 350.8868103 C63.2373812 360.09607545 61.23140993 369.22168042 58.82055664 378.28833008 C58.01703203 381.31060654 57.34765625 383.94227519 57.34765625 387.0859375 C59.97183722 387.56998016 62.59687222 388.04823248 65.22265625 388.5234375 C66.31320312 388.72549805 66.31320312 388.72549805 67.42578125 388.93164062 C95.20561979 393.92713791 131.18547013 395.00980022 155.41015625 378.2109375 C167.44747493 368.68214551 173.49190988 357.37531688 175.34765625 342.0859375 C175.93226885 321.25034435 166.82293209 301.84233529 156.09765625 284.5234375 C155.33678711 283.28158691 155.33678711 283.28158691 154.56054688 282.01464844 C154.07263672 281.25313477 153.58472656 280.49162109 153.08203125 279.70703125 C152.65116211 279.0308374 152.22029297 278.35464355 151.77636719 277.65795898 C150.01696143 275.72207148 148.92734273 275.36161724 146.34765625 275.0859375 C145.37828125 275.3953125 144.40890625 275.7046875 143.41015625 276.0234375 C133.40896479 279.12209725 123.7788404 276.89239741 114.34765625 273.0859375 Z M-133.65234375 321.0859375 C-133.11947722 329.32106409 -132.05898215 337.30397118 -130.46484375 345.3984375 C-130.24997314 346.50622559 -130.03510254 347.61401367 -129.8137207 348.75537109 C-127.57432454 359.99147147 -124.71523852 371.04936486 -121.65234375 382.0859375 C-118.11345454 383.31926525 -115.89376866 382.84045812 -112.33984375 381.78515625 C-111.27693115 381.4720752 -110.21401855 381.15899414 -109.11889648 380.83642578 C-107.97493408 380.48563965 -106.83097168 380.13485352 -105.65234375 379.7734375 C-104.47293213 379.41749512 -103.29352051 379.06155273 -102.07836914 378.69482422 C-93.00734099 375.9117426 -84.0325011 372.88074448 -75.08984375 369.7109375 C-73.87748047 369.28256592 -72.66511719 368.85419434 -71.41601562 368.4128418 C-70.29646484 368.008479 -69.17691406 367.60411621 -68.0234375 367.1875 C-67.0327124 366.82994629 -66.0419873 366.47239258 -65.02124023 366.10400391 C-62.52310883 365.20367287 -62.52310883 365.20367287 -60.65234375 363.0859375 C-61.21405273 362.78002686 -61.77576172 362.47411621 -62.35449219 362.15893555 C-67.07802857 359.58590168 -71.79976554 357.00963214 -76.51953125 354.4296875 C-80.24607392 352.39385876 -83.97883712 350.37104768 -87.72265625 348.3671875 C-99.25650897 342.15997098 -110.36300839 335.38782455 -121.421875 328.37109375 C-125.44075803 325.82553713 -129.49571496 323.39904055 -133.65234375 321.0859375 Z M53.34765625 321.0859375 C52.39890625 321.71757812 51.45015625 322.34921875 50.47265625 323 C32.07246131 335.13909763 12.93755888 345.94707078 -6.5637207 356.20019531 C-7.69124756 356.79541992 -8.81877441 357.39064453 -9.98046875 358.00390625 C-10.97981445 358.52750732 -11.97916016 359.0511084 -13.00878906 359.59057617 C-15.3927839 360.93911407 -17.51094796 362.3845763 -19.65234375 364.0859375 C-6.62260999 369.19452761 6.4903185 373.91496928 19.84765625 378.0859375 C21.06864014 378.47128662 22.28962402 378.85663574 23.54760742 379.25366211 C29.50215192 381.08509871 35.1303207 382.59347528 41.34765625 383.0859375 C44.13720786 374.43326851 46.48105838 365.78133539 48.41015625 356.8984375 C48.66547119 355.7323999 48.92078613 354.5663623 49.18383789 353.36499023 C50.67034134 346.48060629 52.0834064 339.58856113 53.28515625 332.6484375 C53.47766968 331.56816284 53.47766968 331.56816284 53.67407227 330.46606445 C54.23852796 327.0002642 54.32620815 324.44103802 53.34765625 321.0859375 Z M-47.8515625 375.10546875 C-48.87950928 375.54568359 -49.90745605 375.98589844 -50.96655273 376.43945312 C-52.07973877 376.92091797 -53.1929248 377.40238281 -54.33984375 377.8984375 C-65.2666865 382.49222375 -76.30397656 386.46515264 -87.58984375 390.0859375 C-88.66170425 390.43212631 -88.66170425 390.43212631 -89.75521851 390.78530884 C-98.31240646 393.54033297 -106.89249492 396.0431146 -115.65234375 398.0859375 C-108.93885467 423.6811146 -95.15571729 448.17364963 -76.65234375 467.0859375 C-76.06582031 467.70855469 -75.47929687 468.33117187 -74.875 468.97265625 C-64.87249385 478.71251454 -51.54803345 483.4245841 -37.85522461 483.46875 C-20.92621774 483.14471757 -8.70107882 473.87796927 2.66015625 462.11328125 C17.8884602 445.34349552 31.39053615 421.14240876 36.34765625 399.0859375 C30.4565942 397.08543101 24.53956521 395.22374562 18.58105469 393.43505859 C0.41424427 387.96197089 -17.77087861 382.14083678 -34.98046875 374.08203125 C-39.82715059 372.27515425 -43.21074142 373.06424806 -47.8515625 375.10546875 Z " fill="#FFF" transform="translate(295.65234375,12.9140625)"/>
<path d="M0 0 C2.10084701 -0.01718633 4.2001085 -0.06106997 6.30053711 -0.10522461 C7.64232244 -0.1153545 8.98412112 -0.12386968 10.32592773 -0.13061523 C12.15281128 -0.15248901 12.15281128 -0.15248901 14.01660156 -0.17480469 C17.91449401 0.38203709 19.53314351 1.55821466 22.30639648 4.29516602 C23.80796522 7.29830349 23.39920853 10.08584124 23.36889648 13.42016602 C23.35987305 14.70149414 23.35084961 15.98282227 23.34155273 17.30297852 C23.32995117 18.29040039 23.31834961 19.27782227 23.30639648 20.29516602 C27.22280578 21.90452392 27.22280578 21.90452392 31.30639648 22.29516602 C33.46133579 20.76911716 34.99331495 19.04583137 36.72827148 17.06079102 C38.78716989 14.75727101 40.26825669 13.88797378 43.30639648 13.29516602 C49.16115635 13.13361083 51.840403 14.34073554 56.20874023 18.26782227 C57.9054969 19.94606405 59.58351184 21.64343106 61.24389648 23.35766602 C62.10563477 24.19233398 62.96737305 25.02700195 63.85522461 25.88696289 C70.72867623 32.83624455 70.72867623 32.83624455 71.43920898 37.72094727 C71.28504536 41.86976243 70.62292427 43.85773769 68.30639648 47.29516602 C67.21071802 48.26319262 66.10612469 49.22120067 64.99389648 50.17016602 C63.36009092 51.56293544 63.36009092 51.56293544 62.30639648 53.29516602 C62.38938141 56.3490114 63.20309886 58.38647228 64.30639648 61.29516602 C65.25901367 61.24875977 66.21163086 61.20235352 67.19311523 61.15454102 C68.44737305 61.11844727 69.70163086 61.08235352 70.99389648 61.04516602 C72.23526367 60.99875977 73.47663086 60.95235352 74.75561523 60.90454102 C78.9907449 61.37045187 80.4769279 62.13431822 83.30639648 65.29516602 C85.6244651 70.88087353 85.60966502 76.34684639 85.55639648 82.29516602 C85.56413086 83.15883789 85.57186523 84.02250977 85.57983398 84.91235352 C85.56087238 91.15072075 85.49388835 96.85148141 81.13842773 101.71704102 C77.53294506 103.72616515 75.09501387 103.69847882 70.99389648 103.54516602 C69.73963867 103.50907227 68.48538086 103.47297852 67.19311523 103.43579102 C66.24049805 103.38938477 65.28788086 103.34297852 64.30639648 103.29516602 C62.69703858 107.21157531 62.69703858 107.21157531 62.30639648 111.29516602 C63.83244534 113.45010533 65.55573113 114.98208449 67.54077148 116.71704102 C69.84429149 118.77593942 70.71358872 120.25702622 71.30639648 123.29516602 C71.43240917 129.06024654 70.38072494 131.69228009 66.44702148 135.94360352 C64.83469935 137.53742359 63.20377028 139.11260232 61.55639648 140.67016602 C60.33823242 141.87866211 60.33823242 141.87866211 59.09545898 143.11157227 C50.74556942 151.23027596 50.74556942 151.23027596 43.99389648 151.35766602 C39.56537045 150.08165004 37.35355049 148.06118832 34.10327148 144.88891602 C32.29186212 143.07202904 32.29186212 143.07202904 29.30639648 142.29516602 C26.15619287 143.17835895 26.15619287 143.17835895 23.30639648 144.29516602 C23.35280273 145.2477832 23.39920898 146.20040039 23.44702148 147.18188477 C23.48311523 148.43614258 23.51920898 149.69040039 23.55639648 150.98266602 C23.60280273 152.2240332 23.64920898 153.46540039 23.69702148 154.74438477 C23.24372666 158.86483472 22.20388328 160.40304494 19.30639648 163.29516602 C15.02503579 165.43584636 9.36503185 164.56323326 4.61279297 164.59033203 C2.51194596 164.60751836 0.41268447 164.65140201 -1.68774414 164.69555664 C-3.02952947 164.70568654 -4.37132815 164.71420172 -5.71313477 164.72094727 C-7.54001831 164.74282104 -7.54001831 164.74282104 -9.40380859 164.76513672 C-13.30170104 164.20829494 -14.92035054 163.03211737 -17.69360352 160.29516602 C-19.19517225 157.29202854 -18.78641556 154.50449079 -18.75610352 151.17016602 C-18.74708008 149.88883789 -18.73805664 148.60750977 -18.72875977 147.28735352 C-18.7171582 146.29993164 -18.70555664 145.31250977 -18.69360352 144.29516602 C-22.61001281 142.68580811 -22.61001281 142.68580811 -26.69360352 142.29516602 C-28.84854283 143.82121487 -30.38052199 145.54450066 -32.11547852 147.52954102 C-34.17437692 149.83306102 -35.65546372 150.70235825 -38.69360352 151.29516602 C-44.54836338 151.4567212 -47.22761003 150.24959649 -51.59594727 146.32250977 C-53.29270393 144.64426798 -54.97071887 142.94690097 -56.63110352 141.23266602 C-57.4928418 140.39799805 -58.35458008 139.56333008 -59.24243164 138.70336914 C-66.11588326 131.75408748 -66.11588326 131.75408748 -66.82641602 126.86938477 C-66.67225239 122.7205696 -66.0101313 120.73259434 -63.69360352 117.29516602 C-62.59792505 116.32713941 -61.49333172 115.36913136 -60.38110352 114.42016602 C-58.74729796 113.02739659 -58.74729796 113.02739659 -57.69360352 111.29516602 C-57.77658844 108.24132063 -58.59030589 106.20385975 -59.69360352 103.29516602 C-60.6462207 103.34157227 -61.59883789 103.38797852 -62.58032227 103.43579102 C-63.83458008 103.47188477 -65.08883789 103.50797852 -66.38110352 103.54516602 C-67.6224707 103.59157227 -68.86383789 103.63797852 -70.14282227 103.68579102 C-74.37795193 103.21988016 -75.86413493 102.45601381 -78.69360352 99.29516602 C-81.01167213 93.7094585 -80.99687205 88.24348564 -80.94360352 82.29516602 C-80.95133789 81.43149414 -80.95907227 80.56782227 -80.96704102 79.67797852 C-80.94807941 73.43961128 -80.88109538 67.73885062 -76.52563477 62.87329102 C-72.9201521 60.86416688 -70.4822209 60.89185322 -66.38110352 61.04516602 C-65.1268457 61.08125977 -63.87258789 61.11735352 -62.58032227 61.15454102 C-61.62770508 61.20094727 -60.67508789 61.24735352 -59.69360352 61.29516602 C-58.08424561 57.37875672 -58.08424561 57.37875672 -57.69360352 53.29516602 C-59.21965237 51.14022671 -60.94293816 49.60824755 -62.92797852 47.87329102 C-65.23149852 45.81439261 -66.10079575 44.33330581 -66.69360352 41.29516602 C-66.8551587 35.44040615 -65.64803399 32.7611595 -61.72094727 28.39282227 C-60.04270548 26.6960656 -58.34533847 25.01805066 -56.63110352 23.35766602 C-55.79643555 22.49592773 -54.96176758 21.63418945 -54.10180664 20.74633789 C-47.15252498 13.87288627 -47.15252498 13.87288627 -42.26782227 13.16235352 C-38.1190071 13.31651714 -36.13103184 13.97863823 -32.69360352 16.29516602 C-31.72557691 17.39084448 -30.76756886 18.49543781 -29.81860352 19.60766602 C-28.42583409 21.24147158 -28.42583409 21.24147158 -26.69360352 22.29516602 C-23.63975813 22.21218109 -21.60229725 21.39846364 -18.69360352 20.29516602 C-18.74000977 19.34254883 -18.78641602 18.38993164 -18.83422852 17.40844727 C-18.87032227 16.15418945 -18.90641602 14.89993164 -18.94360352 13.60766602 C-18.99000977 12.36629883 -19.03641602 11.12493164 -19.08422852 9.84594727 C-18.63093369 5.72549731 -17.59109031 4.18728709 -14.69360352 1.29516602 C-10.41224282 -0.84551433 -4.75223888 0.02709877 0 0 Z M-2.69360352 15.29516602 C-2.74258789 16.01961914 -2.79157227 16.74407227 -2.84204102 17.49047852 C-3.68386886 28.37618344 -3.68386886 28.37618344 -5.69360352 32.29516602 C-7.33334967 33.0255459 -9.00669188 33.68152821 -10.69360352 34.29516602 C-11.61657227 34.72055664 -12.53954102 35.14594727 -13.49047852 35.58422852 C-25.70595279 41.1102764 -25.70595279 41.1102764 -31.69360352 39.29516602 C-34.7014958 37.25967442 -37.21533999 34.94224858 -39.69360352 32.29516602 C-43.02120275 33.84711356 -45.17940837 35.6013855 -47.69360352 38.29516602 C-46.48382589 41.15464039 -45.28598666 42.71248803 -43.06860352 44.98266602 C-40.45610446 48.12546339 -39.91576161 50.53048744 -40.12329102 54.58422852 C-41.36328368 60.47844021 -44.17229665 65.86143542 -46.69360352 71.29516602 C-47.02360352 72.28516602 -47.35360352 73.27516602 -47.69360352 74.29516602 C-53.23759969 76.41839859 -58.80260067 76.810974 -64.69360352 77.29516602 C-64.69360352 80.59516602 -64.69360352 83.89516602 -64.69360352 87.29516602 C-63.7177832 87.42793945 -62.74196289 87.56071289 -61.73657227 87.69750977 C-60.46426758 87.87411133 -59.19196289 88.05071289 -57.88110352 88.23266602 C-56.6165332 88.40668945 -55.35196289 88.58071289 -54.04907227 88.76000977 C-50.69360352 89.29516602 -50.69360352 89.29516602 -47.69360352 90.29516602 C-46.67016602 92.49829102 -46.67016602 92.49829102 -45.69360352 95.29516602 C-45.26821289 96.21813477 -44.84282227 97.14110352 -44.40454102 98.09204102 C-38.87849313 110.30751529 -38.87849313 110.30751529 -40.69360352 116.29516602 C-42.72909512 119.3030583 -45.04652095 121.81690249 -47.69360352 124.29516602 C-46.14165597 127.62276525 -44.38738403 129.78097087 -41.69360352 132.29516602 C-38.83412914 131.08538839 -37.2762815 129.88754916 -35.00610352 127.67016602 C-31.86330614 125.05766696 -29.45828209 124.51732411 -25.40454102 124.72485352 C-19.51032932 125.96484618 -14.12733411 128.77385915 -8.69360352 131.29516602 C-7.70360352 131.62516602 -6.71360352 131.95516602 -5.69360352 132.29516602 C-3.16931375 137.62422219 -3.08567457 143.49664141 -2.69360352 149.29516602 C0.60639648 149.29516602 3.90639648 149.29516602 7.30639648 149.29516602 C7.37987305 148.20848633 7.37987305 148.20848633 7.45483398 147.09985352 C8.29666183 136.21414859 8.29666183 136.21414859 10.30639648 132.29516602 C11.94614264 131.56478613 13.61948485 130.90880382 15.30639648 130.29516602 C16.22936523 129.86977539 17.15233398 129.44438477 18.10327148 129.00610352 C30.31874576 123.48005563 30.31874576 123.48005563 36.30639648 125.29516602 C39.31428877 127.33065762 41.82813296 129.64808345 44.30639648 132.29516602 C47.63399572 130.74321847 49.79220134 128.98894653 52.30639648 126.29516602 C51.09661886 123.43569164 49.89877963 121.877844 47.68139648 119.60766602 C45.06889743 116.46486864 44.52855458 114.05984459 44.73608398 110.00610352 C45.97607665 104.11189182 48.78508962 98.72889661 51.30639648 93.29516602 C51.80139648 91.81016602 51.80139648 91.81016602 52.30639648 90.29516602 C57.85039266 88.17193344 63.41539364 87.77935803 69.30639648 87.29516602 C69.30639648 83.99516602 69.30639648 80.69516602 69.30639648 77.29516602 C67.84266602 77.09600586 67.84266602 77.09600586 66.34936523 76.89282227 C65.07706055 76.7162207 63.80475586 76.53961914 62.49389648 76.35766602 C61.22932617 76.18364258 59.96475586 76.00961914 58.66186523 75.83032227 C55.30639648 75.29516602 55.30639648 75.29516602 52.30639648 74.29516602 C51.28295898 72.09204102 51.28295898 72.09204102 50.30639648 69.29516602 C49.88100586 68.37219727 49.45561523 67.44922852 49.01733398 66.49829102 C43.4912861 54.28281674 43.4912861 54.28281674 45.30639648 48.29516602 C47.34188808 45.28727373 49.65931392 42.77342954 52.30639648 40.29516602 C50.75444894 36.96756678 49.000177 34.80936116 46.30639648 32.29516602 C43.44692211 33.50494364 41.88907447 34.70278287 39.61889648 36.92016602 C36.47609911 39.53266507 34.07107506 40.07300792 30.01733398 39.86547852 C24.12312229 38.62548585 18.74012708 35.81647288 13.30639648 33.29516602 C11.82139648 32.80016602 11.82139648 32.80016602 10.30639648 32.29516602 C7.78210672 26.96610985 7.69846754 21.09369062 7.30639648 15.29516602 C4.00639648 15.29516602 0.70639648 15.29516602 -2.69360352 15.29516602 Z " fill="#FFF" transform="translate(253.693603515625,173.704833984375)"/>
<path d="M0 0 C8.38830565 6.1169736 15.14579023 13.54899948 17 24 C17.82535597 34.28520516 17.22475855 43.20651971 11.01171875 51.7265625 C4.04944917 59.87927196 -3.22779005 65.37630414 -14.1640625 66.25390625 C-25.03748721 66.62109162 -33.01028302 64.89332025 -41.375 57.75 C-49.42930518 49.95138704 -52.99326743 42.55420954 -53.375 31.25 C-53.15424398 20.28191162 -49.99444227 13.0413912 -42.3671875 5.1640625 C-30.82099066 -5.39137157 -13.88988174 -7.779168 0 0 Z M-33.375 19.5 C-36.63101122 24.50924804 -37.88533056 29.00188545 -37 35 C-34.77715004 41.84536749 -30.89027944 45.85010873 -24.625 49.3125 C-18.28004881 50.97427293 -13.48362976 50.4161193 -7.82421875 47.26953125 C-3.48373077 44.24884904 -0.34900401 40.15074258 1 35 C1.62294697 28.66670583 0.66981869 24.25707156 -3 19 C-6.40336425 15.40553775 -10.34244082 12.42936755 -15.296875 11.62890625 C-23.24836628 11.41365887 -27.93541984 13.77412614 -33.375 19.5 Z " fill="#FFF" transform="translate(274,225)"/>
</svg>
