<?xml version="1.0" standalone="no"?>
<!DOCTYPE svg PUBLIC "-//W3C//DTD SVG 20010904//EN"
 "http://www.w3.org/TR/2001/REC-SVG-20010904/DTD/svg10.dtd">
<svg version="1.0" xmlns="http://www.w3.org/2000/svg"
 width="512.000000pt" height="512.000000pt" viewBox="0 0 512.000000 512.000000"
 preserveAspectRatio="xMidYMid meet">

<g transform="translate(0.000000,512.000000) scale(0.100000,-0.100000)"
fill="#000000" stroke="none">
<path d="M363 5110 c-140 -15 -264 -102 -326 -229 l-32 -66 -2 -840 -2 -840
30 85 c43 124 80 198 157 318 38 59 95 147 127 196 114 178 221 309 445 544
178 187 248 246 380 325 52 31 118 72 145 91 92 63 230 145 298 175 100 45
428 147 558 173 104 21 140 23 419 23 343 0 379 -4 620 -76 344 -102 481 -165
750 -343 159 -105 173 -117 382 -331 120 -122 244 -254 277 -294 69 -85 176
-249 268 -411 36 -63 85 -148 109 -189 48 -82 93 -199 129 -336 l24 -90 1 881
c0 857 -1 884 -20 947 -36 116 -134 219 -258 269 l-57 23 -2175 1 c-1196 1
-2207 -2 -2247 -6z"/>
<path d="M2241 5009 c-96 -11 -254 -54 -458 -123 -195 -67 -234 -86 -430 -213
-84 -54 -195 -123 -245 -153 -199 -118 -576 -539 -806 -900 -233 -367 -256
-439 -291 -915 -13 -169 0 -445 29 -615 61 -367 291 -774 624 -1105 77 -78
172 -176 210 -219 83 -94 177 -170 346 -282 197 -130 312 -186 501 -243 91
-28 179 -55 194 -61 16 -6 83 -25 149 -43 l121 -32 380 0 c430 0 378 -7 725
97 245 73 362 122 532 226 251 152 340 222 531 416 97 100 202 211 233 249 74
89 161 236 288 487 149 293 195 441 216 690 6 69 16 162 22 206 6 45 8 101 5
125 -3 24 -15 116 -26 204 -23 190 -40 266 -88 400 -41 116 -57 150 -128 265
-28 47 -74 126 -100 175 -58 106 -175 282 -253 380 -62 77 -381 399 -452 456
-70 57 -326 226 -416 275 -115 63 -202 97 -423 165 -282 87 -368 99 -669 98
-136 -1 -280 -5 -321 -10z m467 -922 c42 -28 154 -127 248 -219 l171 -168 246
0 247 0 16 -25 c12 -19 17 -62 21 -205 l6 -181 89 -57 c202 -129 176 -102 238
-247 65 -150 77 -173 159 -315 36 -62 61 -117 61 -134 0 -15 -19 -69 -41 -120
-23 -50 -73 -167 -111 -261 -103 -252 -96 -243 -241 -315 -67 -33 -131 -67
-141 -75 -17 -13 -19 -33 -24 -185 -4 -135 -8 -172 -20 -182 -11 -10 -79 -14
-246 -16 l-231 -3 -43 -42 c-24 -23 -87 -92 -139 -154 -81 -95 -115 -125 -221
-198 -68 -48 -130 -89 -137 -91 -7 -3 -48 12 -91 34 -44 21 -110 51 -147 67
-65 27 -74 35 -223 207 -103 118 -164 180 -182 185 -14 3 -124 3 -244 0 -209
-7 -219 -6 -238 13 -19 19 -20 33 -20 208 0 167 -2 191 -17 204 -10 9 -73 43
-140 77 l-123 61 -41 83 c-23 45 -75 141 -115 213 -41 72 -91 171 -111 220
l-36 89 28 50 c57 103 114 224 171 365 32 80 70 157 84 173 18 19 62 41 155
73 72 26 136 51 143 56 9 8 12 62 12 209 l0 199 26 16 c23 15 50 16 257 11
128 -4 237 -3 243 1 10 6 155 178 260 305 39 49 45 52 180 98 159 54 149 54
262 -24z"/>
<path d="M2480 4009 c-36 -10 -77 -21 -92 -24 -19 -4 -57 -45 -147 -159 -67
-85 -140 -171 -163 -191 l-42 -36 -222 3 -223 3 -5 -29 c-3 -16 -6 -102 -6
-191 0 -118 -3 -165 -12 -172 -7 -6 -85 -39 -172 -74 l-159 -64 -33 -70 c-18
-38 -44 -110 -59 -160 -15 -49 -50 -134 -77 -187 -42 -85 -48 -103 -42 -135
10 -53 75 -208 145 -343 l60 -116 142 -93 c78 -52 154 -105 170 -119 l27 -26
0 -174 0 -175 220 6 220 7 58 -58 c31 -31 101 -107 154 -167 l97 -110 152 -58
c175 -67 154 -68 286 16 52 33 101 80 187 179 65 73 136 145 158 161 l41 27
208 0 207 0 4 161 3 161 27 21 c15 12 86 53 158 92 72 38 138 77 146 86 16 17
125 277 163 388 20 59 21 72 12 150 -9 71 -20 104 -65 196 -29 60 -75 156
-101 211 -46 100 -48 102 -116 145 -39 24 -104 67 -147 94 l-77 50 -5 184 -5
183 -229 -1 -228 -2 -112 109 c-185 182 -370 323 -418 321 -13 -1 -52 -10 -88
-20z m-327 -994 c87 -91 163 -165 169 -165 5 0 23 9 39 21 88 62 255 81 358
40 30 -12 67 -31 82 -42 l27 -19 109 112 c60 62 130 135 155 163 40 43 48 47
62 36 9 -7 16 -19 16 -25 0 -7 -67 -82 -148 -169 l-148 -157 39 -78 c32 -65
40 -92 44 -158 6 -87 -11 -169 -48 -233 l-20 -34 23 -26 c12 -14 83 -88 156
-163 74 -75 132 -143 130 -150 -3 -7 -14 -14 -24 -16 -15 -2 -63 40 -173 153
l-152 156 -39 -31 c-72 -57 -125 -75 -225 -75 -77 0 -98 4 -148 27 -32 15 -76
41 -97 58 -21 16 -40 30 -43 30 -3 0 -76 -72 -163 -160 -86 -88 -165 -160
-175 -160 -46 0 -23 35 136 200 91 94 165 174 165 178 0 5 -4 12 -9 17 -5 6
-19 38 -30 72 -37 109 -23 241 34 339 l27 46 -167 168 c-151 152 -166 170
-156 189 7 12 17 21 24 21 7 0 83 -74 170 -165z"/>
<path d="M5096 2014 c-40 -186 -129 -394 -294 -684 -105 -186 -149 -247 -277
-380 -66 -69 -147 -156 -180 -194 -147 -169 -614 -465 -865 -549 -76 -26 -394
-116 -485 -137 -31 -8 -176 -14 -379 -17 -425 -6 -429 -6 -891 136 -227 70
-472 197 -675 349 -121 91 -548 527 -647 661 -47 64 -98 132 -113 151 -108
143 -220 395 -274 615 -13 54 -14 -29 -13 -795 l2 -855 27 -58 c15 -32 53 -85
84 -118 71 -74 154 -116 256 -129 104 -13 4257 -13 4368 0 155 19 276 103 342
238 l33 67 3 745 c1 410 1 812 0 894 l-3 149 -19 -89z"/>
</g>
</svg>
